<svg width="38" height="24" viewBox="0 0 38 24" fill="none" xmlns="http://www.w3.org/2000/svg">
<g clip-path="url(#clip0_24_1222)">
<mask id="mask0_24_1222" style="mask-type:luminance" maskUnits="userSpaceOnUse" x="0" y="0" width="38" height="24">
<path d="M37.3599 0.900024H0.359863V23.1H37.3599V0.900024Z" fill="white"/>
</mask>
<g mask="url(#mask0_24_1222)">
<path d="M37.3599 0.900024H0.359863V23.1H37.3599V0.900024Z" fill="white"/>
<path d="M25.133 8.9274L37.3598 1.88644V0.900024H36.5219L22.5752 8.9274H25.133Z" fill="#BD0034"/>
<path d="M24.5598 15.5149L37.3599 22.8847V21.4107L27.1176 15.5149H24.5598Z" fill="#BD0034"/>
<path d="M0.359863 2.58943L11.3187 8.92743H13.8765L0.359863 1.11548V2.58943Z" fill="#BD0034"/>
<path d="M13.2922 15.5149L0.359863 22.964V23.1001H2.69717L15.85 15.5149H13.2922Z" fill="#BD0034"/>
<path d="M34.835 0.900024H21.8806V8.36049L34.835 0.900024Z" fill="#1A237B"/>
<path d="M16.1588 0.900024H3.24854L16.1588 8.36049V0.900024Z" fill="#1A237B"/>
<path d="M37.3599 8.92735V3.83655L28.573 8.92735H37.3599Z" fill="#1A237B"/>
<path d="M37.3599 20.5603V15.5149H28.573L37.3599 20.5603Z" fill="#1A237B"/>
<path d="M3.98706 23.1001H16.1587V16.0818L3.98706 23.1001Z" fill="#1A237B"/>
<path d="M21.8806 23.1001H34.0853L21.8806 16.0818V23.1001Z" fill="#1A237B"/>
<path d="M0.359863 15.5149V20.7871L9.45551 15.5149H0.359863Z" fill="#1A237B"/>
<path d="M0.359863 8.92737H9.45551L0.359863 3.65515V8.92737Z" fill="#1A237B"/>
<path d="M17.2943 0.900024V10.2426H0.359863V14.1996H17.2943V23.1H20.7341V14.1996H37.3599V10.2426H20.7341V0.900024H17.2943Z" fill="#BD0034"/>
</g>
</g>
<defs>
<clipPath id="clip0_24_1222">
<rect width="37" height="22.2" fill="white" transform="translate(0.359863 0.900024)"/>
</clipPath>
</defs>
</svg>
