<svg width="38" height="24" viewBox="0 0 38 24" fill="none" xmlns="http://www.w3.org/2000/svg">
<g clip-path="url(#clip0_24_1220)">
<path d="M37.3599 0.900024H0.359863V23.1H37.3599V0.900024Z" fill="#266000"/>
<path d="M10.073 0.900024H4.24072V23.1H10.073V0.900024Z" fill="#BF0236"/>
<path fill-rule="evenodd" clip-rule="evenodd" d="M4.24072 7.10198V6.93191L4.4943 6.50106L4.42815 6.41035L4.5825 6.18359L4.5384 6.09289L4.42815 6.26296L4.39507 6.18359L4.72582 5.58267L4.79197 5.66204L4.72582 5.75274L4.83607 5.92282L5.08965 5.49197L4.83607 5.0838L4.72582 5.23119L4.79197 5.3219L4.72582 5.40126L4.39507 4.80034L4.42815 4.72098L4.5384 4.89105L4.5825 4.80034L4.42815 4.57358L4.4943 4.48288L4.24072 4.05203V3.88196L4.5825 4.48288L4.5384 4.57358L4.68172 4.80034L4.5825 4.98175L4.68172 5.15183L4.83607 4.89105L5.16683 5.49197L4.83607 6.09289L4.68172 5.83211L4.5825 6.00218L4.68172 6.18359L4.5384 6.41035L4.5825 6.50106L4.24072 7.10198Z" fill="white"/>
<path fill-rule="evenodd" clip-rule="evenodd" d="M4.24072 4.98169L4.30687 5.15176V5.4012H4.46122L4.5384 5.4919L4.46122 5.58261H4.30687V5.83205L4.24072 6.00212V4.98169Z" fill="white"/>
<path fill-rule="evenodd" clip-rule="evenodd" d="M4.24072 11.1723V11.0022L4.4943 10.5827L4.42815 10.492L4.5825 10.2312L4.5384 10.1405L4.42815 10.3106L4.39507 10.2312L4.72582 9.653L4.79197 9.74371L4.72582 9.82307L4.83607 9.99314L5.08965 9.5623L4.83607 9.16546L4.72582 9.31286L4.79197 9.40356L4.72582 9.48293L4.39507 8.88201L4.42815 8.7913L4.5384 8.96138L4.5825 8.88201L4.42815 8.62123L4.4943 8.53053L4.24072 8.13369V7.96362L4.5825 8.53053L4.5384 8.62123L4.68172 8.88201L4.5825 9.05208L4.68172 9.22215L4.83607 8.96138L5.16683 9.5623L4.83607 10.1405L4.68172 9.91378L4.5825 10.0838L4.68172 10.2312L4.5384 10.492L4.5825 10.5827L4.24072 11.1723Z" fill="white"/>
<path fill-rule="evenodd" clip-rule="evenodd" d="M4.24072 9.05212L4.30687 9.2222V9.48297H4.46122L4.5384 9.56234L4.46122 9.65304H4.30687V9.91382L4.24072 10.0839V9.05212Z" fill="white"/>
<path fill-rule="evenodd" clip-rule="evenodd" d="M4.24072 15.254V15.084L4.4943 14.6531L4.42815 14.5624L4.5825 14.3016L4.5384 14.2223L4.42815 14.3924L4.39507 14.3016L4.72582 13.7234L4.79197 13.7914L4.72582 13.8821L4.83607 14.0522L5.08965 13.644L4.83607 13.2132L4.72582 13.3833L4.79197 13.474L4.72582 13.5533L4.39507 12.9524L4.42815 12.873L4.5384 13.0431L4.5825 12.9524L4.42815 12.703L4.4943 12.6123L4.24072 12.1814V12.0114L4.5825 12.6123L4.5384 12.703L4.68172 12.9524L4.5825 13.1225L4.68172 13.2926L4.83607 13.0431L5.16683 13.644L4.83607 14.2223L4.68172 13.9615L4.5825 14.1316L4.68172 14.3016L4.5384 14.5624L4.5825 14.6531L4.24072 15.254Z" fill="white"/>
<path fill-rule="evenodd" clip-rule="evenodd" d="M4.24072 13.1224L4.30687 13.2925V13.5533H4.46122L4.5384 13.644L4.46122 13.7234H4.30687V13.9615L4.24072 14.1315V13.1224Z" fill="white"/>
<path fill-rule="evenodd" clip-rule="evenodd" d="M4.24072 19.0636V18.8936L4.4943 18.4741L4.42815 18.3833L4.5825 18.1226L4.5384 18.0319L4.42815 18.2133L4.39507 18.1226L4.72582 17.5217L4.79197 17.6124L4.72582 17.6917L4.83607 17.8618L5.08965 17.4423L4.83607 17.0341L4.72582 17.2042L4.79197 17.2836L4.72582 17.3743L4.39507 16.7733L4.42815 16.6826L4.5384 16.864L4.5825 16.7733L4.42815 16.5126L4.4943 16.4332L4.24072 16.0023V15.8323L4.5825 16.4332L4.5384 16.5126L4.68172 16.7733L4.5825 16.9434L4.68172 17.1135L4.83607 16.864L5.16683 17.4536L4.83607 18.0319L4.68172 17.7824L4.5825 17.9525L4.68172 18.1226L4.5384 18.3833L4.5825 18.4741L4.24072 19.0636Z" fill="white"/>
<path fill-rule="evenodd" clip-rule="evenodd" d="M4.24072 16.9435L4.30687 17.1136V17.3743H4.46122L4.5384 17.4424L4.46122 17.5217H4.30687V17.7825L4.24072 17.9526V16.9435Z" fill="white"/>
<path fill-rule="evenodd" clip-rule="evenodd" d="M10.0728 7.10198V6.93191L9.81922 6.50106L9.88537 6.41035L9.74204 6.18359L9.78614 6.09289L9.88537 6.26296L9.92947 6.18359L9.59872 5.58267L9.53257 5.66204L9.59872 5.75274L9.48847 5.92282L9.25694 5.49197L9.48847 5.0838L9.59872 5.23119L9.53257 5.3219L9.59872 5.40126L9.92947 4.80034L9.88537 4.72098L9.78614 4.89105L9.74204 4.80034L9.88537 4.57358L9.81922 4.48288L10.0728 4.05203V3.88196L9.74204 4.48288L9.78614 4.57358L9.63179 4.80034L9.74204 4.98175L9.63179 5.15183L9.48847 4.89105L9.15771 5.49197L9.48847 6.09289L9.63179 5.83211L9.74204 6.00218L9.63179 6.18359L9.78614 6.41035L9.74204 6.50106L10.0728 7.10198Z" fill="white"/>
<path fill-rule="evenodd" clip-rule="evenodd" d="M10.073 4.98169L10.0289 5.15176V5.4012H9.8856L9.78638 5.4919L9.8856 5.58261H10.0289V5.83205L10.073 6.00212V4.98169Z" fill="white"/>
<path fill-rule="evenodd" clip-rule="evenodd" d="M10.0728 11.1723V11.0022L9.81922 10.5827L9.88537 10.492L9.74204 10.2312L9.78614 10.1405L9.88537 10.3106L9.92947 10.2312L9.59872 9.653L9.53257 9.74371L9.59872 9.82307L9.48847 9.99314L9.25694 9.5623L9.48847 9.16546L9.59872 9.31286L9.53257 9.40356L9.59872 9.48293L9.92947 8.88201L9.88537 8.7913L9.78614 8.96138L9.74204 8.88201L9.88537 8.62123L9.81922 8.53053L10.0728 8.13369V7.96362L9.74204 8.53053L9.78614 8.62123L9.63179 8.88201L9.74204 9.05208L9.63179 9.22215L9.48847 8.96138L9.15771 9.5623L9.48847 10.1405L9.63179 9.91378L9.74204 10.0838L9.63179 10.2312L9.78614 10.492L9.74204 10.5827L10.0728 11.1723Z" fill="white"/>
<path fill-rule="evenodd" clip-rule="evenodd" d="M10.073 9.05212L10.0289 9.2222V9.48297H9.8856L9.78638 9.56234L9.8856 9.65304H10.0289V9.91382L10.073 10.0839V9.05212Z" fill="white"/>
<path fill-rule="evenodd" clip-rule="evenodd" d="M10.0728 15.254V15.084L9.81922 14.6531L9.88537 14.5624L9.74204 14.3016L9.78614 14.2223L9.88537 14.3924L9.92947 14.3016L9.59872 13.7234L9.53257 13.7914L9.59872 13.8821L9.48847 14.0522L9.25694 13.644L9.48847 13.2132L9.59872 13.3833L9.53257 13.474L9.59872 13.5533L9.92947 12.9524L9.88537 12.873L9.78614 13.0431L9.74204 12.9524L9.88537 12.703L9.81922 12.6123L10.0728 12.1814V12.0114L9.74204 12.6123L9.78614 12.703L9.63179 12.9524L9.74204 13.1225L9.63179 13.2926L9.48847 13.0431L9.15771 13.644L9.48847 14.2223L9.63179 13.9615L9.74204 14.1316L9.63179 14.3016L9.78614 14.5624L9.74204 14.6531L10.0728 15.254Z" fill="white"/>
<path fill-rule="evenodd" clip-rule="evenodd" d="M10.073 13.1224L10.0289 13.2925V13.5533H9.8856L9.78638 13.644L9.8856 13.7234H10.0289V13.9615L10.073 14.1315V13.1224Z" fill="white"/>
<path fill-rule="evenodd" clip-rule="evenodd" d="M10.0728 19.0636V18.8936L9.81922 18.4741L9.88537 18.3833L9.74204 18.1226L9.78614 18.0319L9.88537 18.2133L9.92947 18.1226L9.59872 17.5217L9.53257 17.6124L9.59872 17.6917L9.48847 17.8618L9.25694 17.4423L9.48847 17.0341L9.59872 17.2042L9.53257 17.2836L9.59872 17.3743L9.92947 16.7733L9.88537 16.6826L9.78614 16.864L9.74204 16.7733L9.88537 16.5126L9.81922 16.4332L10.0728 16.0023V15.8323L9.74204 16.4332L9.78614 16.5126L9.63179 16.7733L9.74204 16.9434L9.63179 17.1135L9.48847 16.864L9.15771 17.4536L9.48847 18.0319L9.63179 17.7824L9.74204 17.9525L9.63179 18.1226L9.78614 18.3833L9.74204 18.4741L10.0728 19.0636Z" fill="white"/>
<path fill-rule="evenodd" clip-rule="evenodd" d="M10.073 16.9435L10.0289 17.1136V17.3743H9.8856L9.78638 17.4424L9.8856 17.5217H10.0289V17.7825L10.073 17.9526V16.9435Z" fill="white"/>
<path fill-rule="evenodd" clip-rule="evenodd" d="M4.24072 2.53271V2.36264L4.4943 1.93179L4.42815 1.85242L4.5825 1.58031L4.5384 1.50094L4.42815 1.67102L4.39507 1.58031L4.72582 0.990729L4.79197 1.0701L4.72582 1.1608L4.83607 1.33087L5.08965 0.900024H5.16683L4.83607 1.50094L4.68172 1.24017L4.5825 1.42158L4.68172 1.58031L4.5384 1.85242L4.5825 1.93179L4.24072 2.53271Z" fill="white"/>
<path fill-rule="evenodd" clip-rule="evenodd" d="M4.24072 0.900024H4.5384L4.46122 0.990729H4.30687V1.24017L4.24072 1.42158V0.900024Z" fill="white"/>
<path fill-rule="evenodd" clip-rule="evenodd" d="M10.0728 2.53271V2.36264L9.81922 1.93179L9.88537 1.85242L9.74204 1.58031L9.78614 1.50094L9.88537 1.67102L9.92947 1.58031L9.59872 0.990729L9.53257 1.0701L9.59872 1.1608L9.48847 1.33087L9.25694 0.900024H9.15771L9.48847 1.50094L9.63179 1.24017L9.74204 1.42158L9.63179 1.58031L9.78614 1.85242L9.74204 1.93179L10.0728 2.53271Z" fill="white"/>
<path fill-rule="evenodd" clip-rule="evenodd" d="M10.073 0.900024H9.78638L9.8856 0.990729H10.0289V1.24017L10.073 1.42158V0.900024Z" fill="white"/>
<path fill-rule="evenodd" clip-rule="evenodd" d="M6.66626 22.9073C6.84997 22.6548 7.12356 22.4877 7.42699 22.4424C7.94516 22.3631 8.02234 22.6805 8.34206 22.6805C8.61025 22.6451 8.87097 22.5647 9.11382 22.4424C8.87346 22.6641 8.57383 22.8063 8.25386 22.8506C7.90106 22.8506 7.76876 22.6352 7.40494 22.6805C7.15212 22.7143 6.90413 22.779 6.66626 22.8733V22.9073Z" fill="white"/>
<path fill-rule="evenodd" clip-rule="evenodd" d="M7.69158 22.9073C7.60784 22.785 7.50141 22.681 7.37842 22.6012C7.25543 22.5215 7.11831 22.4675 6.97495 22.4424C6.44575 22.3631 6.34653 22.6805 6.04885 22.6805C5.77986 22.6491 5.5185 22.5685 5.2771 22.4424C5.50788 22.6655 5.801 22.8082 6.115 22.8506C6.48985 22.8506 6.62215 22.6352 6.997 22.6805C7.23928 22.7133 7.47643 22.7781 7.70261 22.8733L7.69158 22.9073Z" fill="white"/>
<path fill-rule="evenodd" clip-rule="evenodd" d="M5.98249 22.3744C5.87224 22.2837 5.87224 21.8982 5.87224 21.8528C5.87224 21.8075 6.21402 22.2157 6.19197 22.5671C6.02659 22.6238 5.47534 22.5671 5.47534 22.4311C5.47534 22.295 5.82814 22.329 5.98249 22.4311V22.3744Z" fill="white"/>
<path fill-rule="evenodd" clip-rule="evenodd" d="M5.65193 22.0455C5.65193 21.9435 5.56373 21.5353 5.65193 21.5127C5.74013 21.49 5.91653 21.9435 5.83936 22.2837C5.67398 22.2837 5.14478 22.0682 5.18888 21.9662C5.23298 21.8641 5.54168 21.9662 5.67398 22.0455H5.65193Z" fill="white"/>
<path fill-rule="evenodd" clip-rule="evenodd" d="M5.37624 21.6601C5.37624 21.5808 5.37624 21.1726 5.37624 21.1499C5.37624 21.1272 5.60776 21.6261 5.47546 21.9209C5.31009 21.9209 4.81396 21.6261 4.84704 21.5354C4.88011 21.4447 5.19984 21.5354 5.33214 21.6601H5.37624Z" fill="white"/>
<path fill-rule="evenodd" clip-rule="evenodd" d="M5.16682 21.3086C5.16682 21.2065 5.16682 20.7983 5.26604 20.7983C5.36527 20.7983 5.44244 21.3086 5.26604 21.592C5.10067 21.592 4.65967 21.1838 4.70377 21.1045C4.74787 21.0251 5.05657 21.2065 5.16682 21.3086Z" fill="white"/>
<path fill-rule="evenodd" clip-rule="evenodd" d="M5.02343 20.8664C5.02343 20.7644 5.10061 20.3789 5.18881 20.3789C5.23658 20.5089 5.2535 20.6487 5.23816 20.7867C5.22282 20.9248 5.17566 21.057 5.10061 21.1726C4.91318 21.1045 4.53833 20.6397 4.58243 20.5717C4.62653 20.5036 4.91318 20.7417 5.02343 20.8664Z" fill="white"/>
<path fill-rule="evenodd" clip-rule="evenodd" d="M5.05643 20.4016C5.05643 20.7984 4.9572 20.7984 4.81388 20.5036C4.76978 20.4016 4.76978 19.9027 4.76978 19.9027C4.76978 19.9027 5.03438 20.2315 5.03438 20.4016H5.05643Z" fill="white"/>
<path fill-rule="evenodd" clip-rule="evenodd" d="M8.38615 22.4424C8.38615 22.3517 8.52947 21.9662 8.46332 21.9208C8.39717 21.8755 8.13257 22.2836 8.15462 22.6238C8.32 22.6918 8.86022 22.6238 8.86022 22.4991C8.86022 22.3744 8.50742 22.397 8.38615 22.4424Z" fill="white"/>
<path fill-rule="evenodd" clip-rule="evenodd" d="M8.69469 22.091C8.69469 21.9776 8.77186 21.5808 8.69469 21.5581C8.61751 21.5354 8.41906 21.9776 8.50726 22.3291C8.67264 22.3291 9.19082 22.1137 9.17979 22.0116C9.16877 21.9096 8.81596 22.0116 8.67264 22.091H8.69469Z" fill="white"/>
<path fill-rule="evenodd" clip-rule="evenodd" d="M8.95936 21.7055C8.95936 21.6261 8.95936 21.2066 8.95936 21.1953C8.95936 21.1839 8.72783 21.6601 8.84911 21.9663C9.02551 21.9663 9.52164 21.6601 9.47754 21.5808C9.43344 21.5014 9.12473 21.5808 8.99243 21.7055H8.95936Z" fill="white"/>
<path fill-rule="evenodd" clip-rule="evenodd" d="M9.17993 21.3087C9.17993 21.1953 9.17993 20.7871 9.06968 20.7871C9.00596 20.9112 8.97266 21.0493 8.97266 21.1896C8.97266 21.3299 9.00596 21.4681 9.06968 21.5921C9.23506 21.5921 9.67606 21.1839 9.63196 21.0932C9.58786 21.0025 9.30121 21.1953 9.17993 21.3087Z" fill="white"/>
<path fill-rule="evenodd" clip-rule="evenodd" d="M9.32312 20.9117C9.32312 20.7984 9.23492 20.4242 9.15774 20.4242C9.08057 20.4242 9.04749 20.9344 9.25697 21.2065C9.43337 21.2065 9.79719 20.685 9.76412 20.6169C9.73104 20.5489 9.43337 20.787 9.32312 20.9117Z" fill="white"/>
<path fill-rule="evenodd" clip-rule="evenodd" d="M9.3011 20.4355C9.3011 20.8437 9.3893 20.8437 9.53263 20.5489C9.6098 20.4355 9.6098 19.948 9.53263 19.948C9.45545 19.948 9.27905 20.2768 9.27905 20.4355H9.3011Z" fill="white"/>
<path fill-rule="evenodd" clip-rule="evenodd" d="M9.17986 16.1725H8.88218V16.4333H8.61758V16.6827H7.482L7.29458 16.9435L7.40483 17.0795H7.85686L7.96711 16.9435H7.482L7.59225 16.8187H8.23171L7.96711 17.2042H7.29458L7.10715 17.0795L6.91973 17.2042H6.28028L6.00465 16.8187H6.65513L6.7323 16.9435H6.28028L6.3795 17.0795H6.83153L6.91973 16.9435L6.7323 16.6827H5.70697V16.4333H5.43135V16.1725H5.16675V14.9933H5.43135V14.7325H5.70697V14.4831H6.7323L6.91973 14.2223L6.83153 14.0863H6.3795L6.28028 14.2223H6.7323L6.65513 14.347H6.00465L6.28028 13.9615H6.91973L7.10715 14.0863L7.29458 13.9615H7.96711L8.23171 14.347H7.59225L7.482 14.2223H7.96711L7.85686 14.0863H7.40483L7.29458 14.2223L7.482 14.4831H8.61758V14.7325H8.88218V14.9933H9.17986V16.1725Z" fill="#BF0236"/>
<path fill-rule="evenodd" clip-rule="evenodd" d="M5.2439 15.1407V16.0477H5.51952V16.3085H5.8172V16.5579H6.73228L7.10713 16.9434L7.48198 16.5579H8.5073V16.3085H8.80498V16.0477H9.06958V15.118H8.80498V14.8686L8.5073 14.8912V14.6078H7.48198L7.10713 14.2223L6.73228 14.6078H5.8172V14.8912H5.51952V15.1407H5.2439Z" fill="#266000"/>
<path d="M5.31 16.0477H5.18872V15.1407H5.31V16.0477ZM5.24385 16.1044V16.0477V16.1044ZM5.24385 15.9797H5.51947V16.1044H5.24385V15.9797ZM5.51947 15.9797H5.58562V16.0477H5.51947V15.9797ZM5.58562 16.3085H5.45332V16.0477H5.58562V16.3085ZM5.51947 16.3652H5.45332V16.3085H5.51947V16.3652ZM5.51947 16.2405H5.87227V16.3652H5.51947V16.2405ZM5.81715 16.2405H5.87227V16.3085L5.81715 16.2405ZM5.81715 16.558H5.751V16.3085H5.87227L5.81715 16.558ZM5.81715 16.626H5.751V16.558H5.87227L5.81715 16.626ZM5.81715 16.4899H6.73222V16.626H5.87227L5.81715 16.4899ZM6.73222 16.4899H6.79838L6.73222 16.558V16.4899ZM6.79838 16.4899L7.15118 16.8754L7.06298 16.9888L6.68812 16.6033L6.79838 16.4899ZM7.06298 16.8754L7.43783 16.4899L7.52603 16.6033L7.15118 16.9888L7.06298 16.8754ZM7.43783 16.4899V16.558V16.4899ZM7.43783 16.4899H8.46315V16.626H7.48193L7.43783 16.4899ZM8.54033 16.626H8.50725V16.558H8.5734L8.54033 16.626ZM8.40803 16.3085H8.54033V16.558H8.4411L8.40803 16.3085ZM8.40803 16.2405H8.47418V16.3085H8.4411L8.40803 16.2405ZM8.47418 16.2405H8.77186V16.3652H8.50725L8.47418 16.2405ZM8.82698 16.3652V16.3085V16.3652ZM8.70571 16.0477H8.82698V16.3085H8.73878L8.70571 16.0477ZM8.70571 15.9797H8.77186V16.0477H8.73878L8.70571 15.9797ZM8.77186 15.9797H9.06953V16.1044H8.80493L8.77186 15.9797ZM9.10261 16.1044H9.06953V16.0477H9.17978L9.10261 16.1044ZM8.98133 15.118H9.17978V16.0477H9.01441L8.98133 15.118ZM9.03646 15.05H9.17978V15.118H9.06953L9.03646 15.05ZM9.03646 15.186H8.80493V15.05H9.06953L9.03646 15.186ZM8.77186 15.186H8.73878V15.118H8.80493L8.77186 15.186ZM8.70571 14.8686H8.82698V15.118H8.73878L8.70571 14.8686ZM8.77186 14.8006V14.8686V14.8006ZM8.77186 14.9366H8.50725V14.8119H8.80493L8.77186 14.9366ZM8.47418 14.9366H8.4411V14.8799H8.50725L8.47418 14.9366ZM8.40803 14.5965H8.54033V14.8799H8.4411L8.40803 14.5965ZM8.50725 14.5058H8.5734V14.5738H8.50725V14.5058ZM8.50725 14.6418H7.48193V14.5058H8.50725V14.6418ZM7.48193 14.6418V14.5738V14.6418ZM7.48193 14.6418L7.10708 14.245L7.19528 14.1429L7.57013 14.5284L7.48193 14.6418ZM7.19528 14.245L6.84248 14.6418L6.73222 14.5284L7.10708 14.1429L7.19528 14.245ZM6.84248 14.6418H6.73222V14.5738L6.84248 14.6418ZM6.77632 14.6418H5.87227V14.5058H6.78735L6.77632 14.6418ZM5.751 14.5058H5.87227V14.5738H5.751V14.5058ZM5.87227 14.8572H5.751V14.5738H5.87227V14.8572ZM5.87227 14.9139V14.8572V14.9139ZM5.87227 14.9139H5.51947V14.7892H5.87227V14.9139ZM5.50845 14.7892H5.5746V14.8572H5.45332L5.50845 14.7892ZM5.64075 15.1067H5.45332V14.8572H5.58562L5.64075 15.1067ZM5.64075 15.1747H5.51947V15.1067H5.58562L5.64075 15.1747ZM5.5746 15.1747H5.24385V15.05H5.51947L5.5746 15.1747ZM5.24385 15.05V15.1067V15.05Z" fill="white"/>
<path fill-rule="evenodd" clip-rule="evenodd" d="M6.56692 14.7325L6.00464 15.3788V14.7325H6.56692Z" fill="#BF0236"/>
<path fill-rule="evenodd" clip-rule="evenodd" d="M7.66943 14.7325L8.23171 15.3788V14.7325H7.66943Z" fill="#BF0236"/>
<path fill-rule="evenodd" clip-rule="evenodd" d="M6.56692 16.4333L6.00464 15.787V16.4333H6.56692Z" fill="#BF0236"/>
<path fill-rule="evenodd" clip-rule="evenodd" d="M7.66943 16.4333L8.23171 15.787V16.4333H7.66943Z" fill="#BF0236"/>
<path fill-rule="evenodd" clip-rule="evenodd" d="M7.85686 15.118L7.66943 15.3788H8.04428L7.85686 15.118Z" fill="#BF0236"/>
<path fill-rule="evenodd" clip-rule="evenodd" d="M6.37956 15.118L6.19214 15.3788H6.56699L6.37956 15.118Z" fill="#BF0236"/>
<path fill-rule="evenodd" clip-rule="evenodd" d="M6.37956 16.0478L6.19214 15.787H6.56699L6.37956 16.0478Z" fill="#BF0236"/>
<path fill-rule="evenodd" clip-rule="evenodd" d="M7.85686 16.0478L7.66943 15.787H8.04428L7.85686 16.0478Z" fill="#BF0236"/>
<path fill-rule="evenodd" clip-rule="evenodd" d="M7.1071 16.6827L6.91968 16.4332H7.29453L7.1071 16.6827Z" fill="white"/>
<path fill-rule="evenodd" clip-rule="evenodd" d="M7.1071 15.3788L6.91968 15.118H7.29453L7.1071 15.3788Z" fill="white"/>
<path fill-rule="evenodd" clip-rule="evenodd" d="M7.1071 14.483L6.91968 14.7325H7.29453L7.1071 14.483Z" fill="white"/>
<path fill-rule="evenodd" clip-rule="evenodd" d="M7.1071 15.787L6.91968 16.0478H7.29453L7.1071 15.787Z" fill="white"/>
<path d="M8.04428 15.3788H7.66943V15.5148H8.04428V15.3788Z" fill="white"/>
<path d="M6.4677 15.5149H6.28027V15.6623H6.4677V15.5149Z" fill="#BF0236"/>
<path d="M7.95598 15.5149H7.76855V15.6623H7.95598V15.5149Z" fill="#BF0236"/>
<path d="M7.29453 14.7325H6.91968V14.8573H7.29453V14.7325Z" fill="#BF0236"/>
<path d="M7.29453 14.9933H6.91968V15.118H7.29453V14.9933Z" fill="#BF0236"/>
<path d="M7.40484 14.8685H6.83154V15.0046H7.40484V14.8685Z" fill="#BF0236"/>
<path d="M7.29453 16.0477H6.91968V16.1838H7.29453V16.0477Z" fill="#BF0236"/>
<path d="M7.29453 16.3085H6.91968V16.4332H7.29453V16.3085Z" fill="#BF0236"/>
<path d="M7.40484 16.1725H6.83154V16.2972H7.40484V16.1725Z" fill="#BF0236"/>
<path d="M8.04428 15.6622H7.66943V15.7983H8.04428V15.6622Z" fill="white"/>
<path d="M6.56699 15.3788H6.19214V15.5148H6.56699V15.3788Z" fill="white"/>
<path d="M6.56699 15.6622H6.19214V15.7983H6.56699V15.6622Z" fill="white"/>
<path d="M6.26921 15.5149H6.08179V15.6623H6.26921V15.5149Z" fill="white"/>
<path d="M6.64421 15.5149H6.45679V15.6623H6.64421V15.5149Z" fill="white"/>
<path d="M7.77971 15.5149H7.59229V15.6623H7.77971V15.5149Z" fill="white"/>
<path d="M8.13242 15.5149H7.96704V15.6623H8.13242V15.5149Z" fill="white"/>
<path fill-rule="evenodd" clip-rule="evenodd" d="M7.48193 12.7597L7.64731 12.6803L7.79063 12.7597H7.48193Z" fill="white"/>
<path fill-rule="evenodd" clip-rule="evenodd" d="M7.00806 12.7597L7.17343 12.6803L7.31676 12.7597H7.00806Z" fill="white"/>
<path fill-rule="evenodd" clip-rule="evenodd" d="M6.52295 12.7597L6.68832 12.6803L6.83165 12.7597H6.52295Z" fill="white"/>
<path fill-rule="evenodd" clip-rule="evenodd" d="M7.48193 10.5148L7.64731 10.5941L7.79063 10.5148H7.48193Z" fill="white"/>
<path fill-rule="evenodd" clip-rule="evenodd" d="M7.00806 10.5148L7.17343 10.5941L7.31676 10.5148H7.00806Z" fill="white"/>
<path fill-rule="evenodd" clip-rule="evenodd" d="M6.52295 10.5148L6.68832 10.5941L6.83165 10.5148H6.52295Z" fill="white"/>
<path fill-rule="evenodd" clip-rule="evenodd" d="M7.36079 12.7144L7.17336 12.8844L6.98594 12.7144L6.79851 12.8844L6.61108 12.7144V12.8051L6.73236 12.8844L6.66621 12.9525V13.0432H6.73236L6.79851 12.9525L6.85363 13.0432H6.91978V12.9525L6.85363 12.8844L6.98594 12.8051L7.10721 12.8844L7.04106 12.9525V13.0432H7.10721L7.17336 12.9525L7.23951 13.0432H7.29464V12.9525L7.23951 12.8844L7.36079 12.8051L7.48206 12.8844L7.42694 12.9525V13.0432H7.48206L7.52616 12.9525L7.59231 13.0432H7.64744V12.9525L7.59231 12.8844L7.71359 12.8051V12.7144L7.52616 12.8844L7.36079 12.7144Z" fill="#266000"/>
<path fill-rule="evenodd" clip-rule="evenodd" d="M7.36079 10.4921L7.17336 10.3333L6.98594 10.4921L6.79851 10.3333L6.61108 10.4921V10.424L6.73236 10.3333L6.66621 10.2766V10.1973H6.73236L6.79851 10.2766L6.85363 10.1973H6.91978V10.2766L6.85363 10.3333L6.98594 10.424L7.10721 10.3333L7.04106 10.2766V10.1973H7.10721L7.17336 10.2766L7.23951 10.1973H7.29464V10.2766L7.23951 10.3333L7.36079 10.424L7.48206 10.3333L7.42694 10.2766V10.1973H7.48206L7.52616 10.2766L7.59231 10.1973H7.64744V10.2766L7.59231 10.3333L7.71359 10.424V10.4921L7.52616 10.3333L7.36079 10.4921Z" fill="#266000"/>
<path fill-rule="evenodd" clip-rule="evenodd" d="M8.76099 11.7732L8.95944 11.6031L8.76099 11.4557L8.95944 11.2857L8.76099 11.1156H8.86021L8.95944 11.2176L9.06969 11.1723H9.17994V11.2176L9.06969 11.2857L9.17994 11.331V11.3877H9.06969L8.95944 11.331L8.86021 11.4557L8.95944 11.5578L9.06969 11.5011H9.17994V11.5578L9.06969 11.6031L9.17994 11.6712V11.7279H9.06969L8.95944 11.6712L8.86021 11.7732L8.95944 11.8866L9.06969 11.8412H9.17994V11.8866L9.06969 11.9546L9.17994 12.0113V12.0567H9.06969L8.95944 12.0113L8.86021 12.1134H8.76099L8.95944 11.9546L8.76099 11.7732Z" fill="#266000"/>
<path fill-rule="evenodd" clip-rule="evenodd" d="M5.56365 11.7732L5.35417 11.6031L5.56365 11.4557L5.35417 11.2857L5.56365 11.1156H5.4534L5.35417 11.2176L5.24392 11.1723H5.16675V11.2176L5.24392 11.2857L5.16675 11.331V11.3877H5.24392L5.35417 11.331L5.4534 11.4557L5.35417 11.5578L5.24392 11.5011H5.16675V11.5578L5.24392 11.6031L5.16675 11.6712V11.7279H5.24392L5.35417 11.6712L5.4534 11.7732L5.35417 11.8866L5.24392 11.8412H5.16675V11.8866L5.24392 11.9546L5.16675 12.0113V12.0567H5.24392L5.35417 12.0113L5.4534 12.1134H5.56365L5.35417 11.9546L5.56365 11.7732Z" fill="#266000"/>
<path d="M8.92634 12.3402H8.83813V12.4196H8.92634V12.3402Z" fill="#266000"/>
<path d="M8.84919 12.4196H8.76099V12.4989H8.84919V12.4196Z" fill="#266000"/>
<path d="M8.45221 12.8051H8.36401V12.8844H8.45221V12.8051Z" fill="#266000"/>
<path d="M8.51834 12.7144H8.44116V12.8051H8.51834V12.7144Z" fill="#266000"/>
<path d="M5.87234 12.7144H5.79517V12.8051H5.87234V12.7144Z" fill="#266000"/>
<path d="M5.48639 12.3402H5.39819V12.4196H5.48639V12.3402Z" fill="#266000"/>
<path d="M5.56354 12.4196H5.47534V12.4989H5.56354V12.4196Z" fill="#266000"/>
<path d="M5.56354 10.7189H5.47534V10.8096H5.56354V10.7189Z" fill="#266000"/>
<path d="M5.48639 10.8096H5.39819V10.8776H5.48639V10.8096Z" fill="#266000"/>
<path d="M5.96051 10.3334H5.87231V10.4241H5.96051V10.3334Z" fill="#266000"/>
<path d="M5.87234 10.4241H5.79517V10.4808H5.87234V10.4241Z" fill="#266000"/>
<path d="M8.45221 10.3334H8.36401V10.4241H8.45221V10.3334Z" fill="#266000"/>
<path d="M8.51834 10.4241H8.44116V10.4808H8.51834V10.4241Z" fill="#266000"/>
<path d="M8.84919 10.7189H8.76099V10.8096H8.84919V10.7189Z" fill="#266000"/>
<path d="M8.92634 10.8096H8.83813V10.8776H8.92634V10.8096Z" fill="#266000"/>
<path d="M5.96051 12.8051H5.87231V12.8844H5.96051V12.8051Z" fill="#266000"/>
<path fill-rule="evenodd" clip-rule="evenodd" d="M6.97488 11.6032H6.68823V11.4558H6.83156V11.3311H6.97488V11.1951H7.11821V11.3425C7.07008 11.3641 7.03009 11.4012 7.00424 11.4483C6.9784 11.4953 6.96809 11.5497 6.97488 11.6032Z" fill="white"/>
<path fill-rule="evenodd" clip-rule="evenodd" d="M7.38289 11.6032H7.63647V11.4558H7.46007V11.3311H7.31674V11.1951H7.15137V11.3425C7.18323 11.3439 7.2145 11.3518 7.24339 11.3657C7.27228 11.3796 7.29822 11.3992 7.31972 11.4235C7.34123 11.4477 7.35788 11.476 7.36872 11.5069C7.37956 11.5377 7.38437 11.5705 7.38289 11.6032Z" fill="white"/>
<path fill-rule="evenodd" clip-rule="evenodd" d="M7.38289 11.6031H7.63647V11.7505H7.46007V11.9093H7.31674V12.034H7.15137V11.8866C7.21761 11.8781 7.27828 11.8442 7.32122 11.7916C7.36416 11.739 7.38619 11.6717 7.38289 11.6031Z" fill="white"/>
<path fill-rule="evenodd" clip-rule="evenodd" d="M6.97488 11.6031H6.68823V11.7505H6.83156V11.9093H6.97488V12.034H7.11821V11.8866C7.06714 11.8624 7.02534 11.8214 6.9994 11.7701C6.97345 11.7188 6.96483 11.6601 6.97488 11.6031Z" fill="white"/>
<path fill-rule="evenodd" clip-rule="evenodd" d="M7.38289 11.6032H7.15137V11.3424C7.21381 11.3505 7.27142 11.3811 7.31385 11.4289C7.35628 11.4767 7.38076 11.5385 7.38289 11.6032Z" fill="#266000"/>
<path fill-rule="evenodd" clip-rule="evenodd" d="M7.38289 11.6031H7.15137V11.8866C7.21761 11.8781 7.27828 11.8442 7.32122 11.7916C7.36416 11.739 7.38619 11.6717 7.38289 11.6031Z" fill="#BF0236"/>
<path fill-rule="evenodd" clip-rule="evenodd" d="M6.97492 11.6031H7.20644V11.8866C7.17309 11.8838 7.14063 11.8741 7.11091 11.8583C7.08119 11.8425 7.05481 11.8208 7.03329 11.7945C7.01177 11.7681 6.99553 11.7376 6.98551 11.7048C6.97549 11.672 6.97189 11.6374 6.97492 11.6031Z" fill="#266000"/>
<path fill-rule="evenodd" clip-rule="evenodd" d="M6.97486 11.6032H7.20638V11.3424C7.14302 11.3481 7.08405 11.3781 7.04117 11.4264C6.99828 11.4747 6.97461 11.5378 6.97486 11.6032Z" fill="#BF0236"/>
<path fill-rule="evenodd" clip-rule="evenodd" d="M7.40477 12.5669L7.17325 12.4195L6.91967 12.5669L6.68815 12.4195L6.43457 12.5669V12.4989L6.61097 12.4195L6.52277 12.3401V12.2721H6.61097L6.68815 12.3401L6.7543 12.2721H6.83147V12.3401L6.7543 12.4195L6.91967 12.4989L7.08505 12.4195L7.00787 12.3401V12.2721H7.08505L7.17325 12.3401L7.2394 12.2721H7.31657V12.3401L7.2394 12.4195L7.40477 12.4989L7.57015 12.4195L7.48195 12.3401V12.2721H7.57015L7.64732 12.3401L7.71347 12.2721H7.79065V12.3401L7.71347 12.4195L7.87885 12.4989V12.5669L7.64732 12.4195L7.40477 12.5669Z" fill="#266000"/>
<path fill-rule="evenodd" clip-rule="evenodd" d="M7.40477 10.6621L7.17325 10.8095L6.91967 10.6621L6.68815 10.8095L6.43457 10.6621V10.7188L6.61097 10.8095L6.52277 10.8775V10.9569H6.61097L6.68815 10.8775L6.7543 10.9569H6.83147V10.8775L6.7543 10.8095L6.91967 10.7188L7.08505 10.8095L7.00787 10.8775V10.9569H7.08505L7.17325 10.8775L7.2394 10.9569H7.31657V10.8775L7.2394 10.8095L7.40477 10.7188L7.57015 10.8095L7.48195 10.8775V10.9569H7.57015L7.64732 10.8775L7.71347 10.9569H7.79065V10.8775L7.71347 10.8095L7.87885 10.7188V10.6621L7.64732 10.8095L7.40477 10.6621Z" fill="#266000"/>
<path fill-rule="evenodd" clip-rule="evenodd" d="M8.27572 11.7959L8.17649 11.6032L8.27572 11.4104L8.17649 11.2177L8.27572 11.0476H8.22059L8.17649 11.1723L8.11034 11.1156H8.04419V11.1723L8.11034 11.2177L8.04419 11.2857V11.3424H8.11034L8.17649 11.2857L8.22059 11.4104L8.17649 11.5351L8.11034 11.4785H8.04419V11.5351L8.11034 11.6032L8.04419 11.6712V11.7279H8.11034L8.17649 11.6712L8.22059 11.7959L8.17649 11.9206L8.11034 11.864H8.04419V11.9206L8.11034 11.9887L8.04419 12.0567V12.1134H8.11034L8.17649 12.0567L8.22059 12.1814H8.27572L8.17649 11.9887L8.27572 11.7959Z" fill="#266000"/>
<path fill-rule="evenodd" clip-rule="evenodd" d="M6.4347 10.7188L6.126 11.1043V12.2381L6.4347 12.5556H7.87898L8.1987 12.2381V11.1043L7.87898 10.7755L6.4347 10.7188ZM6.35752 10.4921L5.56372 11.2631V11.966L6.35752 12.7143H7.96718L8.76098 11.966V11.2631L7.96718 10.4921H6.35752Z" fill="#266000"/>
<path fill-rule="evenodd" clip-rule="evenodd" d="M6.77637 12.5669L6.89764 12.7143L7.01892 12.5669H6.77637Z" fill="white"/>
<path fill-rule="evenodd" clip-rule="evenodd" d="M6.77637 10.6621L6.89764 10.4921L7.01892 10.6621H6.77637Z" fill="white"/>
<path fill-rule="evenodd" clip-rule="evenodd" d="M7.29468 10.6621L7.42698 10.4921L7.54825 10.6621H7.29468Z" fill="white"/>
<path fill-rule="evenodd" clip-rule="evenodd" d="M7.29468 12.5669L7.42698 12.7143L7.54825 12.5669H7.29468Z" fill="white"/>
<path fill-rule="evenodd" clip-rule="evenodd" d="M6.52295 10.6621L6.65525 10.4921L6.77653 10.6621H6.52295Z" fill="#BF0236"/>
<path fill-rule="evenodd" clip-rule="evenodd" d="M7.01904 10.6621L7.17339 10.4921L7.29467 10.6621H7.01904Z" fill="#BF0236"/>
<path fill-rule="evenodd" clip-rule="evenodd" d="M7.5481 10.6621L7.66937 10.4921L7.79065 10.6621H7.5481Z" fill="#BF0236"/>
<path fill-rule="evenodd" clip-rule="evenodd" d="M6.21411 12.3402L6.43461 12.567H6.21411V12.3402Z" fill="#BF0236"/>
<path fill-rule="evenodd" clip-rule="evenodd" d="M6.03784 11.7959L6.17014 11.6032L6.03784 11.4104L6.17014 11.2177L6.03784 11.0476H6.10399L6.17014 11.1723L6.21424 11.1156H6.28039V11.1723L6.21424 11.2177L6.28039 11.2857V11.3424H6.21424L6.17014 11.2857L6.10399 11.4104L6.17014 11.5351L6.21424 11.4785H6.28039V11.5351L6.21424 11.6032L6.28039 11.6712V11.7279H6.21424L6.17014 11.6712L6.10399 11.7959L6.17014 11.9206L6.21424 11.864H6.28039V11.9206L6.21424 11.9887L6.28039 12.0567V12.1134H6.21424L6.17014 12.0567L6.10399 12.1814H6.03784L6.17014 11.9887L6.03784 11.7959Z" fill="#266000"/>
<path fill-rule="evenodd" clip-rule="evenodd" d="M8.36401 11.4104H8.69476L8.76091 11.4784L8.69476 11.5351H8.36401V11.4104Z" fill="#BF0236"/>
<path fill-rule="evenodd" clip-rule="evenodd" d="M6.21403 10.8776L6.03762 11.0476V12.1814L6.21403 12.3402H5.96045V10.8776H6.21403Z" fill="#BF0236"/>
<path fill-rule="evenodd" clip-rule="evenodd" d="M6.52295 12.5669L6.65525 12.7143L6.77653 12.5669H6.52295Z" fill="#BF0236"/>
<path fill-rule="evenodd" clip-rule="evenodd" d="M7.01904 12.5669L7.17339 12.7143L7.29467 12.5669H7.01904Z" fill="#BF0236"/>
<path fill-rule="evenodd" clip-rule="evenodd" d="M7.5481 12.5669L7.66937 12.7143L7.79065 12.5669H7.5481Z" fill="#BF0236"/>
<path fill-rule="evenodd" clip-rule="evenodd" d="M8.13257 10.8776L8.27589 11.0476V12.1814L8.13257 12.3402H8.36409V10.8776H8.13257Z" fill="#BF0236"/>
<path fill-rule="evenodd" clip-rule="evenodd" d="M8.13248 12.3402L7.87891 12.567H8.13248V12.3402Z" fill="#BF0236"/>
<path fill-rule="evenodd" clip-rule="evenodd" d="M8.13248 10.8775L7.87891 10.6621H8.13248V10.8775Z" fill="#BF0236"/>
<path fill-rule="evenodd" clip-rule="evenodd" d="M6.21411 10.8775L6.43461 10.6621H6.21411V10.8775Z" fill="#BF0236"/>
<path fill-rule="evenodd" clip-rule="evenodd" d="M6.43474 10.7188L6.12604 11.1043V12.2381L6.43474 12.5556H7.87902L8.19875 12.2381V11.1043L7.87902 10.7755L6.43474 10.7188ZM6.43474 10.6621L6.03784 11.1043V12.2381L6.43474 12.6236H7.87902L8.27592 12.2381V11.1043L7.87902 10.7188L6.43474 10.6621Z" fill="#266000"/>
<path fill-rule="evenodd" clip-rule="evenodd" d="M8.36401 11.5352H8.69476L8.76091 11.6032L8.69476 11.6939H8.36401V11.5352Z" fill="white"/>
<path fill-rule="evenodd" clip-rule="evenodd" d="M8.36401 11.6938H8.69476L8.76091 11.7505L8.69476 11.8186H8.36401V11.6938Z" fill="#BF0236"/>
<path fill-rule="evenodd" clip-rule="evenodd" d="M8.36401 11.8186H8.69476L8.76091 11.8866L8.69476 11.966H8.36401V11.8186Z" fill="white"/>
<path fill-rule="evenodd" clip-rule="evenodd" d="M8.36401 11.2631H8.69476L8.76091 11.3424L8.69476 11.4105H8.36401V11.2631Z" fill="white"/>
<path fill-rule="evenodd" clip-rule="evenodd" d="M5.96062 11.4104H5.65192L5.56372 11.4784L5.65192 11.5351H5.96062V11.4104Z" fill="#BF0236"/>
<path fill-rule="evenodd" clip-rule="evenodd" d="M5.96062 11.5352H5.65192L5.56372 11.6032L5.65192 11.6939H5.96062V11.5352Z" fill="white"/>
<path fill-rule="evenodd" clip-rule="evenodd" d="M5.96062 11.6938H5.65192L5.56372 11.7505L5.65192 11.8186H5.96062V11.6938Z" fill="#BF0236"/>
<path fill-rule="evenodd" clip-rule="evenodd" d="M5.96062 11.8186H5.65192L5.56372 11.8866L5.65192 11.966H5.96062V11.8186Z" fill="white"/>
<path fill-rule="evenodd" clip-rule="evenodd" d="M5.96062 11.2631H5.65192L5.56372 11.3424L5.65192 11.4105H5.96062V11.2631Z" fill="white"/>
<path fill-rule="evenodd" clip-rule="evenodd" d="M5.47534 10.8096V12.4196H5.87224V12.8051H8.44107V12.4196H8.83798V10.8096H8.44107V10.4241H5.87224V10.8096H5.47534ZM5.56354 10.8776V12.3402H5.96044V12.7144H8.3639V12.3402H8.7608V10.8776H8.3639V10.4921H5.96044V10.8776H5.56354Z" fill="#BF0236"/>
<path fill-rule="evenodd" clip-rule="evenodd" d="M9.17986 2.91821L8.92628 2.53272V2.2606L8.69476 1.95447H8.19863L7.7907 1.67102H6.52283L6.12593 1.95447H5.65185L5.39827 2.2606V2.53272L5.16675 2.91821V3.66653L5.39827 4.05202V4.33547L5.65185 4.60759H6.12593L6.52283 4.89104H7.7907L8.19863 4.60759H8.69476L8.92628 4.33547V4.05202L9.17986 3.66653V2.91821Z" fill="#BF0236"/>
<path fill-rule="evenodd" clip-rule="evenodd" d="M5.23291 3.28101V3.56446L5.47546 3.94995V4.22207L5.70699 4.5282H6.21414L6.61104 4.80031H7.17332V3.28101H5.23291Z" fill="white"/>
<path fill-rule="evenodd" clip-rule="evenodd" d="M6.47863 3.94995L6.19197 4.18805H6.0266L6.08172 4.26742L5.96045 4.43749L6.0266 4.52819L6.19197 4.43749L6.2471 4.52819L6.28018 4.31277L6.61093 4.05199L6.47863 3.94995Z" fill="#BF0236"/>
<path fill-rule="evenodd" clip-rule="evenodd" d="M6.17003 3.7572L5.87236 4.01798H5.68493L5.75108 4.08601L5.65186 4.24474L5.68493 4.33545L5.87236 4.24474L5.93851 4.33545L5.96056 4.12002L6.28028 3.85924L6.17003 3.7572Z" fill="#BF0236"/>
<path fill-rule="evenodd" clip-rule="evenodd" d="M6.00454 3.38306L5.70687 3.63249H5.54149L5.60764 3.71186L5.47534 3.85926L5.54149 3.94996L5.70687 3.85926L5.77302 3.94996L5.79507 3.73454L6.12582 3.47376L6.00454 3.38306Z" fill="#BF0236"/>
<path fill-rule="evenodd" clip-rule="evenodd" d="M9.09169 3.28102V2.99757L8.83812 2.62341V2.33996L8.61762 2.05651H8.13252L7.71357 1.76172H7.17334V3.28102H9.09169Z" fill="white"/>
<path fill-rule="evenodd" clip-rule="evenodd" d="M7.17329 4.80029H7.00791L6.83151 4.60754H6.56691L6.42358 4.52817L6.50076 4.41479L6.65511 4.52817H6.79844L6.94176 4.22205L7.17329 4.33543V4.52817H6.94176L7.17329 4.80029Z" fill="#BF0236"/>
<path fill-rule="evenodd" clip-rule="evenodd" d="M5.23291 3.28102V2.99757L5.47546 2.62341V2.33996L5.70699 2.05651H6.21414L6.61104 1.76172H7.17332V3.28102H5.23291Z" fill="white"/>
<path fill-rule="evenodd" clip-rule="evenodd" d="M7.17329 1.76172H7.00791L6.83151 1.95447H6.56691L6.42358 2.05651L6.50076 2.14721L6.65511 2.05651H6.79844L6.94176 2.33996L7.17329 2.2606V2.05651H6.94176L7.17329 1.76172Z" fill="#BF0236"/>
<path fill-rule="evenodd" clip-rule="evenodd" d="M7.17334 1.76172H7.31667L7.48204 1.95447H7.75767L7.90099 2.05651L7.83484 2.14721L7.66947 2.05651H7.52614L7.38282 2.33996L7.17334 2.2606V2.05651H7.38282L7.17334 1.76172Z" fill="#BF0236"/>
<path fill-rule="evenodd" clip-rule="evenodd" d="M9.09169 3.28101V3.56446L8.83812 3.94995V4.22207L8.61762 4.5282H8.13252L7.71357 4.80031H7.17334V3.28101H9.09169Z" fill="white"/>
<path fill-rule="evenodd" clip-rule="evenodd" d="M7.17334 4.80029H7.31667L7.48204 4.60754H7.75767L7.90099 4.52817L7.83484 4.41479L7.66947 4.52817H7.52614L7.38282 4.22205L7.17334 4.33543V4.52817H7.38282L7.17334 4.80029Z" fill="#BF0236"/>
<path fill-rule="evenodd" clip-rule="evenodd" d="M6.17003 2.80485L5.87236 2.57809H5.68493L5.75108 2.48738L5.65186 2.31731L5.68493 2.26062L5.87236 2.31731L5.93851 2.26062L5.96056 2.46471L6.28028 2.72548L6.17003 2.80485Z" fill="#BF0236"/>
<path fill-rule="evenodd" clip-rule="evenodd" d="M7.8349 2.62342L8.13257 2.37399H8.29795L8.25385 2.29462L8.3641 2.14722L8.29795 2.05652L8.13257 2.14722L8.06642 2.05652L8.04437 2.27194L7.71362 2.53272L7.8349 2.62342Z" fill="#BF0236"/>
<path fill-rule="evenodd" clip-rule="evenodd" d="M6.47863 2.62342L6.19197 2.37399H6.0266L6.08172 2.29462L5.96045 2.14722L6.0266 2.05652L6.19197 2.14722L6.2471 2.05652L6.28018 2.27194L6.61093 2.53272L6.47863 2.62342Z" fill="#BF0236"/>
<path fill-rule="evenodd" clip-rule="evenodd" d="M6.00454 3.19032L5.70687 2.94088H5.54149L5.60764 2.87285L5.47534 2.70278L5.54149 2.62341L5.70687 2.70278L5.77302 2.62341L5.79507 2.8275L6.12582 3.08828L6.00454 3.19032Z" fill="#BF0236"/>
<path fill-rule="evenodd" clip-rule="evenodd" d="M5.37622 3.28101H5.4534L5.51955 3.38305L5.60775 3.28101H7.1733V4.60756H7.0851L7.1733 4.69827V4.80031L6.94177 4.5282V4.41482H7.00793V4.5282H7.0851V4.41482L6.47872 4.01798H5.9826V3.60981L5.75107 3.38305H5.60775L5.51955 3.47375L5.60775 3.56446H5.51955L5.37622 3.28101Z" fill="white"/>
<path fill-rule="evenodd" clip-rule="evenodd" d="M5.37622 3.28102H5.4534L5.51955 3.19032L5.60775 3.28102H7.1733V1.95447H7.0851L7.1733 1.86376V1.76172L6.94177 2.05651V2.14721H7.00793V2.05651H7.0851V2.14721L6.47872 2.57806H5.9826V2.98623L5.75107 3.19032H5.60775L5.51955 3.08828L5.60775 2.99757H5.51955L5.37622 3.28102Z" fill="white"/>
<path fill-rule="evenodd" clip-rule="evenodd" d="M5.70703 3.28101H7.17336V4.41482L6.52288 3.94995H6.03778V3.56446L5.70703 3.28101Z" fill="#266000"/>
<path fill-rule="evenodd" clip-rule="evenodd" d="M8.15444 2.80485L8.44109 2.57809H8.62852L8.57339 2.48738L8.69467 2.31731L8.62852 2.26062L8.44109 2.31731L8.39699 2.26062L8.36392 2.46471L8.04419 2.72548L8.15444 2.80485Z" fill="#BF0236"/>
<path fill-rule="evenodd" clip-rule="evenodd" d="M8.32001 3.19032L8.61768 2.94088H8.77203L8.73896 2.87285L8.83818 2.70278L8.77203 2.62341L8.61768 2.70278L8.55153 2.62341L8.52948 2.8275L8.19873 3.08828L8.32001 3.19032Z" fill="#BF0236"/>
<path fill-rule="evenodd" clip-rule="evenodd" d="M8.94837 3.28102H8.86017L8.80504 3.19032L8.71684 3.28102H7.17334V1.95447H7.23949L7.17334 1.86376V1.76172L7.38282 2.05651V2.14721H7.31667V2.05651H7.23949V2.14721L7.83484 2.57806H8.34199V2.98623L8.57352 3.19032H8.71684L8.80504 3.08828L8.71684 2.99757H8.80504L8.94837 3.28102Z" fill="white"/>
<path fill-rule="evenodd" clip-rule="evenodd" d="M8.61762 3.28103H7.17334V2.14722L7.79074 2.62342H8.27584V2.99757L8.61762 3.28103Z" fill="#266000"/>
<path fill-rule="evenodd" clip-rule="evenodd" d="M7.8349 3.94995L8.13257 4.18805H8.29795L8.25385 4.26742L8.3641 4.43749L8.29795 4.52819L8.13257 4.43749L8.06642 4.52819L8.04437 4.31277L7.71362 4.05199L7.8349 3.94995Z" fill="#BF0236"/>
<path fill-rule="evenodd" clip-rule="evenodd" d="M8.15444 3.7572L8.44109 4.01798H8.62852L8.57339 4.08601L8.69467 4.24474L8.62852 4.33545L8.44109 4.24474L8.39699 4.33545L8.36392 4.12002L8.04419 3.85924L8.15444 3.7572Z" fill="#BF0236"/>
<path fill-rule="evenodd" clip-rule="evenodd" d="M8.32001 3.38306L8.61768 3.63249H8.77203L8.73896 3.71186L8.83818 3.85926L8.77203 3.94996L8.61768 3.85926L8.55153 3.94996L8.52948 3.73454L8.19873 3.47376L8.32001 3.38306Z" fill="#BF0236"/>
<path fill-rule="evenodd" clip-rule="evenodd" d="M8.94837 3.28101H8.86017L8.80504 3.38305L8.71684 3.28101H7.17334V4.60756H7.23949L7.17334 4.69827V4.80031L7.38282 4.5282V4.41482H7.31667V4.5282H7.23949V4.41482L7.83484 4.01798H8.34199V3.60981L8.57352 3.38305H8.71684L8.80504 3.47375L8.71684 3.56446H8.80504L8.94837 3.28101Z" fill="white"/>
<path fill-rule="evenodd" clip-rule="evenodd" d="M8.61762 3.28101H7.17334V4.41482L7.79074 3.94995H8.27584V3.56446L8.61762 3.28101Z" fill="#BF0236"/>
<path fill-rule="evenodd" clip-rule="evenodd" d="M5.70703 3.28103H7.17336V2.14722L6.52288 2.62342H6.03778V2.99757L5.70703 3.28103Z" fill="#BF0236"/>
<path fill-rule="evenodd" clip-rule="evenodd" d="M7.31667 3.28102L7.71357 2.99757H7.96714L7.87894 2.9182L8.04432 2.72546L7.96714 2.62341L7.71357 2.72546L7.64742 2.62341L7.61434 2.87285L7.17334 3.16764L7.31667 3.28102Z" fill="#BF0236"/>
<path fill-rule="evenodd" clip-rule="evenodd" d="M7.00793 3.28101L6.61102 3.56446H6.35745L6.43462 3.6665L6.28027 3.85925L6.35745 3.94995L6.61102 3.85925L6.6882 3.94995L6.71025 3.68918L7.1733 3.38305L7.00793 3.28101Z" fill="#BF0236"/>
<path fill-rule="evenodd" clip-rule="evenodd" d="M7.00793 3.28102L6.61102 2.99757H6.35745L6.43462 2.9182L6.28027 2.72546L6.35745 2.62341L6.61102 2.72546L6.6882 2.62341L6.71025 2.87285L7.1733 3.16764L7.00793 3.28102Z" fill="#266000"/>
<path fill-rule="evenodd" clip-rule="evenodd" d="M7.31667 3.28101L7.71357 3.56446H7.96714L7.87894 3.6665L8.04432 3.85925L7.96714 3.94995L7.71357 3.85925L7.64742 3.94995L7.61434 3.68918L7.17334 3.38305L7.31667 3.28101Z" fill="#266000"/>
<path fill-rule="evenodd" clip-rule="evenodd" d="M6.68823 3.28101L7.17333 2.80481L7.64741 3.28101L7.17333 3.75721L6.68823 3.28101Z" fill="white"/>
<path fill-rule="evenodd" clip-rule="evenodd" d="M5.60773 3.47375L5.66286 3.56446L5.60773 3.6665H5.51953L5.31006 3.28101H5.37621L5.51953 3.56446H5.60773L5.51953 3.47375L5.60773 3.38305H5.75106V3.47375H5.60773Z" fill="#BF0236"/>
<path fill-rule="evenodd" clip-rule="evenodd" d="M5.60773 3.08828L5.66286 2.99758L5.60773 2.91821H5.51953L5.31006 3.28103H5.37621L5.51953 2.99758H5.60773L5.51953 3.08828L5.60773 3.19033H5.75106V3.08828H5.60773Z" fill="#BF0236"/>
<path fill-rule="evenodd" clip-rule="evenodd" d="M8.71681 3.47375L8.65066 3.56446L8.71681 3.6665H8.80501L9.01449 3.28101H8.94834L8.80501 3.56446H8.71681L8.80501 3.47375L8.71681 3.38305H8.57349V3.47375H8.71681Z" fill="#BF0236"/>
<path fill-rule="evenodd" clip-rule="evenodd" d="M8.71681 3.08828L8.65066 2.99758L8.71681 2.91821H8.80501L9.01449 3.28103H8.94834L8.80501 2.99758H8.71681L8.80501 3.08828L8.71681 3.19033H8.57349V3.08828H8.71681Z" fill="#BF0236"/>
<path d="M7.22853 2.91821H7.08521V3.66653H7.22853V2.91821Z" fill="#BF0236"/>
<path d="M7.45989 3.08826H6.85352V3.47375H7.45989V3.08826Z" fill="#BF0236"/>
<path fill-rule="evenodd" clip-rule="evenodd" d="M6.50078 18.1226L5.16675 18.9162V20.2768L6.50078 21.0705H7.83481L9.17986 20.2768V18.9162L7.83481 18.1226H6.50078Z" fill="#266000"/>
<path fill-rule="evenodd" clip-rule="evenodd" d="M5.65186 19.2791H5.72903V19.0864H5.89441V19.2791H5.98261V18.8369H5.89441V19.0183H5.72903V18.8369H5.65186V19.2791Z" fill="#BF0236"/>
<path fill-rule="evenodd" clip-rule="evenodd" d="M7.69141 20.7984H7.76858V20.617H7.94498V20.7984H8.02216V20.3562H7.94498V20.5489H7.76858V20.3562H7.69141V20.7984Z" fill="#BF0236"/>
<path fill-rule="evenodd" clip-rule="evenodd" d="M8.34204 19.2791H8.43024V19.0864H8.58459V19.2791H8.67279V18.8369H8.58459V19.0183H8.43024V18.8369H8.34204V19.2791Z" fill="#BF0236"/>
<path fill-rule="evenodd" clip-rule="evenodd" d="M8.34204 20.0501H8.43024V19.8573H8.58459V20.0501H8.67279V19.5852H8.58459V19.8006H8.43024V19.5852H8.34204V20.0501Z" fill="#BF0236"/>
<path fill-rule="evenodd" clip-rule="evenodd" d="M7.17334 21.0025V19.5852H9.09169V20.2315L7.82382 21.0025H7.17334Z" fill="white"/>
<path fill-rule="evenodd" clip-rule="evenodd" d="M7.17332 18.1907V19.5853H5.23291V18.9617L6.52284 18.1907H7.17332Z" fill="white"/>
<path fill-rule="evenodd" clip-rule="evenodd" d="M7.17334 18.1907V19.5853H9.09169V18.9617L7.82382 18.1907H7.17334Z" fill="white"/>
<path fill-rule="evenodd" clip-rule="evenodd" d="M7.17332 21.0025V19.5852H5.23291V20.2315L6.52284 21.0025H7.17332Z" fill="white"/>
<path fill-rule="evenodd" clip-rule="evenodd" d="M8.19867 19.041H8.95939L8.19867 18.6555V19.041ZM9.09169 18.9843V19.6079H7.87894V19.041H7.61434L7.29462 18.8482V18.406L7.48204 18.202H7.23949V18.8482H7.17334V18.1453H7.82382L9.09169 18.9843Z" fill="white"/>
<path fill-rule="evenodd" clip-rule="evenodd" d="M6.52295 19.1543V20.0387H6.71037L7.17343 20.2881L7.61443 20.0387H7.8239V19.1543H7.61443L7.17343 18.8936L6.71037 19.1543H6.52295Z" fill="#BF0236"/>
<path fill-rule="evenodd" clip-rule="evenodd" d="M6.12594 20.1748H5.35419L6.12594 20.5603V20.1748ZM5.23291 20.2428V19.5966H6.45669V20.1068H6.71026L6.97486 20.2882V20.7417L6.78744 20.9345H7.08511V20.2882H7.17332V21.0025H6.52284L5.23291 20.2428Z" fill="white"/>
<path fill-rule="evenodd" clip-rule="evenodd" d="M6.12594 19.041H5.35419L6.12594 18.6555V19.041ZM5.23291 18.9843V19.6079H6.45669V19.041H6.71026L6.97486 18.8936V18.4514L6.78744 18.2474H7.08511V18.8936H7.17332V18.1907H6.52284L5.23291 18.9843Z" fill="white"/>
<path fill-rule="evenodd" clip-rule="evenodd" d="M8.19867 20.1748H8.95939L8.19867 20.5603V20.1748ZM9.09169 20.2428V19.5966H7.87894V20.1068H7.61434L7.29462 20.2995V20.753L7.48204 20.9458H7.23949V20.2882H7.17334V21.0025H7.82382L9.09169 20.2428Z" fill="white"/>
<path fill-rule="evenodd" clip-rule="evenodd" d="M5.60767 20.0954H5.68484V19.9026H5.85022V20.0954H5.93842V19.6532H5.85022V19.8346H5.68484V19.6532H5.60767V20.0954Z" fill="#BF0236"/>
<path fill-rule="evenodd" clip-rule="evenodd" d="M6.37939 20.7417H6.45657V20.549H6.62194V20.7417H6.71015V20.2882H6.62194V20.481H6.45657V20.2882H6.37939V20.7417Z" fill="#BF0236"/>
<path fill-rule="evenodd" clip-rule="evenodd" d="M5.60767 19.0863H5.68484V19.279H5.85022V19.0863H5.93842V19.5398H5.85022V19.3471H5.68484V19.5398H5.60767V19.0863Z" fill="#BF0236"/>
<path fill-rule="evenodd" clip-rule="evenodd" d="M6.37939 18.4514H6.45657V18.6328H6.62194V18.4514H6.71015V18.8936H6.62194V18.7009H6.45657V18.8936H6.37939V18.4514Z" fill="#BF0236"/>
<path fill-rule="evenodd" clip-rule="evenodd" d="M8.38599 19.5398H8.46316V19.3471H8.62854V19.5398H8.71674V19.0863H8.62854V19.279H8.46316V19.0863H8.38599V19.5398Z" fill="#BF0236"/>
<path fill-rule="evenodd" clip-rule="evenodd" d="M7.61426 20.7417H7.69143V20.549H7.85681V20.7417H7.94501V20.2882H7.85681V20.481H7.69143V20.2882H7.61426V20.7417Z" fill="#BF0236"/>
<path fill-rule="evenodd" clip-rule="evenodd" d="M8.38599 20.0954H8.46316V19.9026H8.62854V20.0954H8.71674V19.6532H8.62854V19.8346H8.46316V19.6532H8.38599V20.0954Z" fill="#BF0236"/>
<path fill-rule="evenodd" clip-rule="evenodd" d="M7.61426 18.8936H7.69143V18.7009H7.85681V18.8936H7.94501V18.4514H7.85681V18.6328H7.69143V18.4514H7.61426V18.8936Z" fill="#BF0236"/>
<path fill-rule="evenodd" clip-rule="evenodd" d="M7.23936 19.5852L7.48191 19.3698H7.61421V19.4719H7.48191V19.5399H7.66933V19.3018H7.48191V19.1317H7.23936V19.3018H7.29448V19.1771H7.42678V19.3018L7.17321 19.5399L6.89758 19.3018V19.1771H7.01886V19.3018H7.08501V19.1317H6.83143V19.3018H6.65503V19.5399H6.83143V19.4719H6.71015V19.3698H6.83143L7.08501 19.5852L6.83143 19.8233H6.71015V19.71H6.83143V19.6533H6.65503V19.88H6.83143V20.0501H7.08501V19.88H7.01886V20.0161H6.89758V19.88L7.17321 19.6533L7.42678 19.88V20.0161H7.29448V19.88H7.23936V20.0501H7.48191V19.88H7.66933V19.6533H7.48191V19.71H7.61421V19.8233H7.48191L7.23936 19.5852Z" fill="#266000"/>
<path fill-rule="evenodd" clip-rule="evenodd" d="M5.35425 7.72553L5.47552 7.55546H6.23625L6.79853 6.81848H7.54823L8.11051 7.55546H8.83816L8.95943 7.72553L8.83816 7.8956H8.11051L7.54823 8.64392H6.79853L6.23625 7.8956H5.47552L5.35425 7.72553Z" fill="#BF0236"/>
<path fill-rule="evenodd" clip-rule="evenodd" d="M5.42041 7.53283L5.47553 7.4648H6.24729L6.83161 6.76184H7.48209L8.06642 7.4648H8.83817L8.90432 7.53283L8.83817 7.58952H8.06642L7.54824 8.21312H6.77649L6.24729 7.58952H5.47553L5.42041 7.53283Z" fill="#BF0236"/>
<path fill-rule="evenodd" clip-rule="evenodd" d="M7.48205 7.58954L7.73563 7.87299L7.61435 8.02039H7.5482H7.48205L7.5482 8.11109H7.66948L7.79075 7.96369V7.80496L7.5482 7.51017L7.79075 7.20404V7.07932L7.66948 6.93193H7.5482L7.48205 6.99996V7.07932H7.5482L7.61435 6.99996L7.73563 7.14735L7.48205 7.44214L7.2395 7.14735L7.48205 6.84122V6.77319L7.22847 7.07932L6.9749 6.77319H6.85362V6.84122L7.1072 7.14735L6.85362 7.44214L6.61107 7.14735L6.73235 6.99996L6.7985 7.07932V6.99996V6.93193H6.6662L6.54492 7.07932V7.20404L6.7985 7.51017L6.54492 7.80496V7.96369L6.6662 8.11109H6.7985V8.02039H6.73235L6.61107 7.87299L6.85362 7.58954L7.1072 7.87299L6.85362 8.16778V8.25848H6.9749L7.22847 7.96369L7.48205 8.25848V8.16778L7.2395 7.87299L7.48205 7.58954ZM7.17335 7.20404L6.9749 7.51017L7.22847 7.80496L7.48205 7.51017L7.17335 7.20404Z" fill="white"/>
<path fill-rule="evenodd" clip-rule="evenodd" d="M6.79858 8.32654V8.89344L6.85371 8.83675L6.91986 8.89344L6.98601 8.83675L7.04113 8.89344L7.10728 8.83675L7.17343 8.89344L7.23958 8.83675L7.29471 8.89344L7.36086 8.83675L7.42701 8.89344L7.48214 8.83675L7.54829 8.89344V8.32654H6.79858Z" fill="white"/>
<path fill-rule="evenodd" clip-rule="evenodd" d="M7.54829 6.69384V6.1156L7.48214 6.18363L7.42701 6.1156L7.36086 6.18363L7.29471 6.1156L7.23958 6.18363L7.17343 6.1156L7.10728 6.18363L7.04113 6.1156L6.98601 6.18363L6.91986 6.1156L6.85371 6.18363L6.79858 6.1156V6.69384H7.54829Z" fill="white"/>
<path fill-rule="evenodd" clip-rule="evenodd" d="M8.58443 7.36277V6.77319L8.5293 6.84122L8.46315 6.77319L8.397 6.84122L8.34188 6.77319L8.29778 6.84122L8.23163 6.77319L8.1765 6.84122L8.11035 6.77319V7.36277H8.58443Z" fill="white"/>
<path fill-rule="evenodd" clip-rule="evenodd" d="M6.23616 7.36277V6.77319L6.17 6.84122L6.10385 6.77319L6.0377 6.84122L5.98258 6.77319L5.91643 6.84122L5.85028 6.77319L5.79515 6.84122L5.729 6.77319V7.36277H6.23616Z" fill="white"/>
<path fill-rule="evenodd" clip-rule="evenodd" d="M8.58443 7.65759V8.25851L8.5293 8.16781L8.46315 8.25851L8.397 8.16781L8.34188 8.25851L8.29778 8.16781L8.23163 8.25851L8.1765 8.16781L8.11035 8.25851V7.65759H8.58443Z" fill="white"/>
<path fill-rule="evenodd" clip-rule="evenodd" d="M6.23616 7.65759V8.25851L6.17 8.16781L6.10385 8.25851L6.0377 8.16781L5.98258 8.25851L5.91643 8.16781L5.85028 8.25851L5.79515 8.16781L5.729 8.25851V7.65759H6.23616Z" fill="white"/>
<path fill-rule="evenodd" clip-rule="evenodd" d="M7.5481 8.32654V8.68936L7.61425 8.62133L7.66937 8.68936L7.73552 8.62133L7.79065 8.68936L7.8568 8.62133L7.92295 8.68936L7.9891 8.62133L8.04422 8.68936L8.11037 8.62133V7.65759L7.5481 8.32654Z" fill="#266000"/>
<path fill-rule="evenodd" clip-rule="evenodd" d="M6.79836 8.32654V8.68936L6.73221 8.62133L6.66606 8.68936L6.61094 8.62133L6.54479 8.68936L6.47863 8.62133L6.42351 8.68936L6.35736 8.62133L6.29121 8.68936L6.23608 8.62133V7.65759L6.79836 8.32654Z" fill="#266000"/>
<path fill-rule="evenodd" clip-rule="evenodd" d="M6.79836 6.69375V6.33093L6.73221 6.4103L6.66606 6.33093L6.61094 6.4103L6.54479 6.33093L6.47863 6.4103L6.42351 6.33093L6.35736 6.4103L6.29121 6.33093L6.23608 6.4103V7.3627L6.79836 6.69375Z" fill="#266000"/>
<path fill-rule="evenodd" clip-rule="evenodd" d="M7.5481 6.69375V6.33093L7.61425 6.4103L7.66937 6.33093L7.73552 6.4103L7.79065 6.33093L7.8568 6.4103L7.92295 6.33093L7.9891 6.4103L8.04422 6.33093L8.11037 6.4103V7.3627L7.5481 6.69375Z" fill="#266000"/>
<path fill-rule="evenodd" clip-rule="evenodd" d="M5.72904 8.11105L5.66289 8.02034L5.60776 8.11105L5.54161 8.02034L5.47546 8.11105L5.42034 8.02034L5.35419 8.11105L5.28803 8.02034L5.23291 8.11105V6.93188L5.28803 6.99991L5.35419 6.93188L5.42034 6.99991L5.47546 6.93188L5.54161 6.99991L5.60776 6.93188L5.66289 6.99991L5.72904 6.93188V7.36273H5.47546L5.35419 7.51013L5.47546 7.65752H5.72904V8.11105Z" fill="#266000"/>
<path fill-rule="evenodd" clip-rule="evenodd" d="M8.58447 8.11105L8.65062 8.02034L8.71677 8.11105L8.7719 8.02034L8.83805 8.11105L8.9042 8.02034L8.95932 8.11105L9.02547 8.02034L9.09162 8.11105V6.93188L9.02547 6.99991L8.95932 6.93188L8.9042 6.99991L8.83805 6.93188L8.7719 6.99991L8.71677 6.93188L8.65062 6.99991L8.58447 6.93188V7.36273H8.83805L8.95932 7.51013L8.83805 7.65752H8.58447V8.11105Z" fill="#266000"/>
<path fill-rule="evenodd" clip-rule="evenodd" d="M6.47876 8.37184C6.47876 8.37184 6.47876 8.37184 6.47876 8.45121C6.48539 8.46932 6.49571 8.48577 6.50902 8.49946C6.52233 8.51314 6.53832 8.52375 6.55593 8.53057C6.5764 8.53057 6.59603 8.52221 6.61051 8.50733C6.62498 8.49244 6.63311 8.47226 6.63311 8.45121V8.37184V8.25846C6.63311 8.25846 6.76541 8.45121 6.76541 8.37184C6.76541 8.29247 6.63311 8.19043 6.63311 8.19043C6.63311 8.19043 6.51183 8.32649 6.51183 8.37184C6.51183 8.41719 6.63311 8.25846 6.63311 8.25846L6.47876 8.37184Z" fill="white"/>
<path fill-rule="evenodd" clip-rule="evenodd" d="M7.12927 8.59856C7.12927 8.59856 7.06312 8.66659 7.06312 8.71194C7.06312 8.75729 7.12927 8.83666 7.17337 8.83666C7.21747 8.83666 7.25054 8.75729 7.25054 8.71194C7.25901 8.67465 7.25901 8.63585 7.25054 8.59856V8.42849C7.25054 8.42849 7.34977 8.68926 7.34977 8.57588C7.33213 8.49411 7.29835 8.41693 7.25054 8.34912H7.12927C7.12927 8.34912 7.00799 8.53053 7.01902 8.57588C7.03004 8.62124 7.12927 8.42849 7.12927 8.42849V8.59856Z" fill="#BF0236"/>
<path fill-rule="evenodd" clip-rule="evenodd" d="M6.611 7.51012C6.611 7.51012 6.54485 7.58948 6.4787 7.58948C6.41255 7.58948 6.35742 7.58948 6.35742 7.51012C6.35742 7.43075 6.35742 7.44209 6.4787 7.44209C6.59997 7.44209 6.611 7.44209 6.611 7.51012Z" fill="#266000"/>
<path fill-rule="evenodd" clip-rule="evenodd" d="M7.29459 7.51012C7.29459 7.51012 7.29459 7.58948 7.17332 7.58948C7.05204 7.58948 7.04102 7.58948 7.04102 7.51012C7.04102 7.43075 7.04102 7.44209 7.17332 7.44209C7.30562 7.44209 7.29459 7.44209 7.29459 7.51012Z" fill="#266000"/>
<path fill-rule="evenodd" clip-rule="evenodd" d="M7.98917 7.51012C7.98917 7.51012 7.92302 7.58948 7.85687 7.58948C7.79072 7.58948 7.7356 7.58948 7.7356 7.51012C7.7356 7.43075 7.7356 7.44209 7.85687 7.44209C7.97815 7.44209 7.98917 7.44209 7.98917 7.51012Z" fill="#266000"/>
<path fill-rule="evenodd" clip-rule="evenodd" d="M6.45665 6.67114C6.44043 6.63915 6.42926 6.6047 6.42357 6.5691V6.47839C6.42357 6.47839 6.51177 6.54642 6.51177 6.5691C6.51754 6.60285 6.51754 6.63739 6.51177 6.67114V6.77318C6.51177 6.77318 6.62202 6.59177 6.62202 6.67114C6.62202 6.75051 6.51177 6.84121 6.51177 6.84121H6.45665C6.45665 6.84121 6.35742 6.71649 6.35742 6.67114C6.35742 6.62579 6.45665 6.77318 6.45665 6.77318V6.67114Z" fill="white"/>
<path fill-rule="evenodd" clip-rule="evenodd" d="M7.10715 6.43305C7.10715 6.43305 7.041 6.35368 7.041 6.30833C7.06585 6.26 7.10426 6.22049 7.15125 6.19495C7.15125 6.19495 7.23945 6.26297 7.23945 6.30833C7.23945 6.35368 7.1733 6.43305 7.1733 6.43305V6.5691C7.1733 6.5691 7.29458 6.29699 7.29458 6.42171C7.29458 6.54643 7.1733 6.63713 7.1733 6.63713H7.10715C7.10715 6.63713 6.97485 6.50108 6.97485 6.45572C6.97485 6.41037 7.07408 6.60312 7.07408 6.60312L7.10715 6.43305Z" fill="#BF0236"/>
<path fill-rule="evenodd" clip-rule="evenodd" d="M7.82383 8.37184C7.82383 8.37184 7.75768 8.37184 7.75768 8.45121C7.75768 8.53057 7.82383 8.53057 7.83486 8.53057C7.84589 8.53057 7.92306 8.53057 7.92306 8.45121C7.92306 8.37184 7.85691 8.37184 7.85691 8.37184V8.25846C7.85691 8.25846 7.98921 8.45121 7.98921 8.37184C7.98921 8.29247 7.85691 8.19043 7.85691 8.19043C7.85691 8.19043 7.72461 8.32649 7.72461 8.37184C7.72461 8.41719 7.85691 8.25846 7.85691 8.25846L7.82383 8.37184Z" fill="white"/>
<path fill-rule="evenodd" clip-rule="evenodd" d="M7.79063 6.67114C7.78564 6.63732 7.78564 6.60292 7.79063 6.5691C7.79063 6.5691 7.79063 6.47839 7.85678 6.47839C7.92293 6.47839 7.93396 6.54642 7.93396 6.5691C7.93972 6.60285 7.93972 6.63739 7.93396 6.67114V6.77318C7.93396 6.77318 8.04421 6.59177 8.04421 6.67114C8.04421 6.75051 7.93396 6.84121 7.93396 6.84121H7.79063C7.79063 6.84121 7.69141 6.71649 7.69141 6.67114C7.69141 6.62579 7.79063 6.77318 7.79063 6.77318V6.67114Z" fill="white"/>
<path fill-rule="evenodd" clip-rule="evenodd" d="M5.93852 7.96364C5.93852 7.96364 5.87237 8.02033 5.87237 8.043C5.87237 8.06568 5.96057 8.13371 5.98262 8.13371C6.00547 8.12892 6.02668 8.11801 6.0441 8.10208C6.06152 8.08615 6.07455 8.06577 6.08185 8.043V7.96364V7.85026C6.08185 7.85026 6.20312 8.02033 6.20312 7.94096C6.20312 7.86159 6.08185 7.78223 6.08185 7.78223H5.93852C5.93852 7.78223 5.7952 7.90695 5.81725 7.94096C5.8393 7.97497 5.93852 7.85026 5.93852 7.85026V7.96364Z" fill="#BF0236"/>
<path fill-rule="evenodd" clip-rule="evenodd" d="M5.87236 7.12466C5.87236 7.12466 5.87236 7.07931 5.87236 7.03396C5.87236 6.9886 5.93851 6.95459 5.98261 6.95459C6.00462 6.95723 6.02551 6.96603 6.043 6.98002C6.0605 6.99401 6.07393 7.01267 6.08184 7.03396L6.00466 7.12466V7.2267C6.00466 7.2267 6.12594 7.05663 6.12594 7.14734C6.12594 7.23804 6.00466 7.29473 6.00466 7.29473H5.87236C5.87236 7.29473 5.72904 7.17001 5.75109 7.14734C5.77314 7.12466 5.87236 7.2267 5.87236 7.2267V7.12466Z" fill="#BF0236"/>
<path fill-rule="evenodd" clip-rule="evenodd" d="M8.34189 7.94096C8.34189 7.94096 8.27574 7.94096 8.27574 8.02033C8.27574 8.09969 8.34189 8.11103 8.38599 8.11103C8.43009 8.11103 8.48522 8.043 8.48522 8.02033C8.48522 7.99765 8.39702 7.94096 8.39702 7.94096V7.82758C8.39702 7.82758 8.52932 7.99765 8.52932 7.94096C8.52932 7.88427 8.39702 7.78223 8.39702 7.78223C8.39702 7.78223 8.25369 7.89561 8.27574 7.94096C8.29779 7.98631 8.39702 7.82758 8.39702 7.82758L8.34189 7.94096Z" fill="#BF0236"/>
<path fill-rule="evenodd" clip-rule="evenodd" d="M8.31987 7.10201C8.31987 7.10201 8.25372 7.10201 8.25372 7.01131C8.26608 6.99484 8.28195 6.9815 8.30011 6.97232C8.31826 6.96315 8.33823 6.95837 8.35846 6.95837C8.37869 6.95837 8.39865 6.96315 8.41681 6.97232C8.43497 6.9815 8.45084 6.99484 8.4632 7.01131L8.38602 7.10201V7.20405C8.38602 7.20405 8.5073 7.03398 8.5073 7.12469C8.5073 7.21539 8.38602 7.27208 8.38602 7.27208H8.31987C8.31987 7.27208 8.17655 7.14736 8.1986 7.12469C8.22065 7.10201 8.31987 7.20405 8.31987 7.20405V7.10201Z" fill="#BF0236"/>
<path fill-rule="evenodd" clip-rule="evenodd" d="M5.42046 7.96361C5.40868 7.92678 5.40868 7.88705 5.42046 7.85023C5.42046 7.85023 5.42046 7.75952 5.49763 7.75952C5.57481 7.75952 5.56378 7.82755 5.56378 7.85023V7.96361V7.8729C5.56378 7.99762 5.56378 7.99762 5.49763 7.8729L5.42046 7.96361Z" fill="white"/>
<path fill-rule="evenodd" clip-rule="evenodd" d="M5.42041 7.10194C5.42041 7.10194 5.42041 7.18131 5.42041 7.20398C5.42041 7.22666 5.42041 7.29469 5.49758 7.29469C5.57476 7.29469 5.56374 7.22666 5.56374 7.18131V7.10194V7.18131C5.56374 7.05659 5.56374 7.05659 5.49758 7.18131L5.42041 7.10194Z" fill="white"/>
<path fill-rule="evenodd" clip-rule="evenodd" d="M8.80497 7.94093C8.79769 7.92297 8.79395 7.9037 8.79395 7.88424C8.79395 7.86478 8.79769 7.84551 8.80497 7.82755C8.80497 7.82755 8.87112 7.75952 8.89317 7.75952C8.91574 7.76198 8.93681 7.77233 8.95286 7.78884C8.96891 7.80535 8.97898 7.82701 8.98137 7.85023C8.98824 7.88769 8.98824 7.92614 8.98137 7.96361V7.8729C8.98137 7.97495 8.98137 7.97495 8.91522 7.8729L8.80497 7.94093Z" fill="white"/>
<path fill-rule="evenodd" clip-rule="evenodd" d="M8.80513 7.10201C8.79673 7.12776 8.79673 7.15562 8.80513 7.18137C8.80513 7.18137 8.87128 7.27208 8.89333 7.27208C8.91538 7.27208 8.98153 7.20405 8.98153 7.18137V7.07933V7.17004C8.98153 7.03398 8.98153 7.03398 8.91538 7.17004L8.80513 7.10201Z" fill="white"/>
<path fill-rule="evenodd" clip-rule="evenodd" d="M6.7764 8.91603V8.71194H6.19208V8.30377H5.66287V8.14503H5.2329V6.88651H5.66287V6.76179H6.19208V6.33094H6.7764V6.13819H7.54815V6.33094H8.13248V6.76179H8.65066V6.88651H9.09166V8.14503H8.65066V8.30377H8.13248V8.71194H7.54815V8.91603H6.7764ZM6.71025 8.98405V8.83666H6.12593V8.3718H5.60775V8.21306H5.16675V6.81848H5.60775V6.69376H6.12593V6.26291H6.71025V6.04749H7.6143V6.26291H8.19863V6.69376H8.71681V6.81848H9.17986V8.21306H8.71681V8.3718H8.19863V8.83666H7.6143V9.02941L6.71025 8.98405Z" fill="#BF0236"/>
<path fill-rule="evenodd" clip-rule="evenodd" d="M18.0771 5.87747C18.1006 5.50004 18.0487 5.12164 17.9244 4.76568C17.8001 4.40971 17.6062 4.08373 17.3546 3.80787C17.103 3.53201 16.7991 3.31213 16.4616 3.16182C16.1241 3.01151 15.7603 2.93396 15.3925 2.93396C15.0247 2.93396 14.6609 3.01151 14.3234 3.16182C13.9859 3.31213 13.682 3.53201 13.4304 3.80787C13.1788 4.08373 12.9849 4.40971 12.8606 4.76568C12.7363 5.12164 12.6844 5.50004 12.7079 5.87747C12.6844 6.25491 12.7363 6.6333 12.8606 6.98927C12.9849 7.34523 13.1788 7.67122 13.4304 7.94708C13.682 8.22294 13.9859 8.44281 14.3234 8.59313C14.6609 8.74344 15.0247 8.82099 15.3925 8.82099C15.7603 8.82099 16.1241 8.74344 16.4616 8.59313C16.7991 8.44281 17.103 8.22294 17.3546 7.94708C17.6062 7.67122 17.8001 7.34523 17.9244 6.98927C18.0487 6.6333 18.1006 6.25491 18.0771 5.87747Z" fill="white"/>
<path fill-rule="evenodd" clip-rule="evenodd" d="M17.3384 5.43525C17.334 4.89532 17.1742 4.36882 16.8791 3.92222C16.584 3.47562 16.1669 3.12894 15.6804 2.92594C15.1939 2.72294 14.6598 2.67272 14.1455 2.78162C13.6313 2.89052 13.16 3.15366 12.791 3.53783C12.4221 3.92199 12.1721 4.40995 12.0726 4.94012C11.9731 5.47028 12.0285 6.01887 12.232 6.51664C12.4354 7.01441 12.7776 7.43905 13.2155 7.73694C13.6534 8.03483 14.1673 8.19263 14.6924 8.19041C15.0422 8.18893 15.3884 8.1164 15.7109 7.977C16.0334 7.8376 16.326 7.63406 16.5719 7.37807C16.8177 7.12207 17.012 6.81867 17.1435 6.48527C17.2751 6.15187 17.3413 5.79503 17.3384 5.43525Z" fill="#266000"/>
<path fill-rule="evenodd" clip-rule="evenodd" d="M15.7398 4.33542H15.3539L15.2547 4.72091L15.1334 4.33542H14.7476L15.0452 4.09732L14.924 3.7345L15.2327 3.94992L15.5524 3.7345L15.4421 4.09732L15.7398 4.33542Z" fill="white"/>
<path fill-rule="evenodd" clip-rule="evenodd" d="M14.3725 3.63254L13.9977 3.65521L13.8985 4.01803L13.7772 3.65521L13.4023 3.63254L13.689 3.3831L13.5567 3.03162L13.8764 3.2357L14.1741 3.03162L14.0859 3.3831L14.3725 3.63254Z" fill="white"/>
<path fill-rule="evenodd" clip-rule="evenodd" d="M14.3725 5.03839H13.9977L13.8985 5.40121L13.7772 5.03839H13.4023L13.689 4.80029L13.5567 4.41479L13.8764 4.6529L14.1741 4.41479L14.0859 4.80029L14.3725 5.03839Z" fill="white"/>
<path fill-rule="evenodd" clip-rule="evenodd" d="M14.3725 6.45575H13.9977L13.8985 6.81857L13.7772 6.45575H13.4023L13.689 6.21765L13.5567 5.83215L13.8764 6.07025L14.1741 5.83215L14.0859 6.21765L14.3725 6.45575Z" fill="white"/>
<path fill-rule="evenodd" clip-rule="evenodd" d="M13.0166 5.73007H12.6418L12.5426 6.11556L12.4103 5.73007H12.0354L12.3331 5.49197L12.2118 5.12915L12.5205 5.34457L12.8292 5.12915L12.73 5.49197L13.0166 5.73007Z" fill="white"/>
<path fill-rule="evenodd" clip-rule="evenodd" d="M7.61426 20.7417H7.69143V20.549H7.85681V20.7417H7.94501V20.2882H7.85681V20.481H7.69143V20.2882H7.61426V20.7417Z" fill="#BF0236"/>
</g>
<defs>
<clipPath id="clip0_24_1220">
<rect width="37" height="22.2" fill="white" transform="translate(0.359863 0.900024)"/>
</clipPath>
</defs>
</svg>
